<svg id="_002-instagram-logo" data-name="002-instagram-logo" xmlns="http://www.w3.org/2000/svg" width="26.002" height="26.003" viewBox="0 0 26.002 26.003">
  <g id="Groupe_315" data-name="Groupe 315">
    <g id="Groupe_314" data-name="Groupe 314">
      <path id="Tracé_189" data-name="Tracé 189" d="M22.459,25.062a2.6,2.6,0,1,0-2.6-2.6A2.607,2.607,0,0,0,22.459,25.062Z" transform="translate(-9.458 -9.457)" fill="#e37051"/>
      <path id="Tracé_190" data-name="Tracé 190" d="M33.4,16.466V13.96h-.326l-2.181.007.008,2.507Z" transform="translate(-14.714 -6.649)" fill="#e37051"/>
      <path id="Tracé_191" data-name="Tracé 191" d="M13,0A13,13,0,1,0,26,13,13.016,13.016,0,0,0,13,0ZM20.4,11.484v6.054A2.861,2.861,0,0,1,17.538,20.4H8.465a2.86,2.86,0,0,1-2.858-2.858V8.466A2.86,2.86,0,0,1,8.465,5.608h9.072A2.861,2.861,0,0,1,20.4,8.466Z" fill="#e37051"/>
      <path id="Tracé_192" data-name="Tracé 192" d="M23.455,23.446a4.044,4.044,0,1,1-7.791-1.517H13.457v6.054A1.417,1.417,0,0,0,14.874,29.4h9.072a1.418,1.418,0,0,0,1.417-1.416V21.929H23.155A3.989,3.989,0,0,1,23.455,23.446Z" transform="translate(-6.41 -10.445)" fill="#e37051"/>
    </g>
  </g>
</svg>
