<svg xmlns="http://www.w3.org/2000/svg" width="22" height="22" viewBox="0 0 22 22">
  <g id="_002-envelope" data-name="002-envelope" transform="translate(0.323 2.999)">
    <g id="Groupe_318" data-name="Groupe 318" transform="translate(-0.323 0)">
      <path id="Tracé_195" data-name="Tracé 195" d="M2.112,59.915q.417.282,2.517,1.673t3.217,2.142q.123.082.522.358t.663.446q.264.17.639.381a3.785,3.785,0,0,0,.706.317,2.025,2.025,0,0,0,.614.106h.025a2.027,2.027,0,0,0,.614-.106,3.789,3.789,0,0,0,.706-.317q.374-.211.638-.381t.663-.446q.4-.276.522-.358L19.9,59.914a5.708,5.708,0,0,0,1.5-1.444A3.008,3.008,0,0,0,22,56.7a1.761,1.761,0,0,0-.583-1.327,1.942,1.942,0,0,0-1.381-.552H1.964a1.789,1.789,0,0,0-1.455.61A2.3,2.3,0,0,0,0,56.956a2.675,2.675,0,0,0,.675,1.6A5.975,5.975,0,0,0,2.112,59.915Z" transform="translate(0 -54.82)" fill="#e37051"/>
      <path id="Tracé_196" data-name="Tracé 196" d="M20.772,185.41q-4.026,2.483-6.114,3.859-.7.47-1.136.733a7.286,7.286,0,0,1-1.16.537,3.826,3.826,0,0,1-1.35.274h-.025a3.828,3.828,0,0,1-1.35-.274A7.289,7.289,0,0,1,8.477,190q-.436-.263-1.136-.733-1.657-1.107-6.1-3.859A6.374,6.374,0,0,1,0,184.437v8.881a1.65,1.65,0,0,0,.577,1.264,1.988,1.988,0,0,0,1.387.526H20.036a1.988,1.988,0,0,0,1.387-.526A1.65,1.65,0,0,0,22,193.318v-8.881A6.627,6.627,0,0,1,20.772,185.41Z" transform="translate(0 -179.108)" fill="#e37051"/>
    </g>
    <rect id="Rectangle_699" data-name="Rectangle 699" width="22" height="22" transform="translate(-0.323 -2.999)" fill="none"/>
  </g>
</svg>
